Did not see this posted here yet.																																This has been remuxed from the original with an older version of MKVMerge to be more compatable.   																																			The file will not be exactly the same as the original upload.																																								Enjoy and please share.																																														TTLTTLTTLTTLTTLTTLTTLTTLTTLTTLTTLTTLTTLTTLTTLTTLTTLTTLTTLTTLTTL																																									New_Tricks_S09_E07_Dead_Poets_720p_HDTV.x264_TTL.mkv
Format                           : Matroska
File size                        : 1.06 GiB
Duration                         : 59mn 1s
Overall bit rate                 : 2 575 Kbps
Encoded date                     : UTC 2012-10-08 23:20:25
Writing application              : mkvmerge v2.4.0 ('Fumbling Towards Ecstasy') built on Oct 11 2008 20:13:15
Writing library                  : libebml v0.7.7 + libmatroska v0.8.1

Video
ID                               : 1
Format                           : AVC
Format/Info                      : Advanced Video Codec
Format profile                   : High@L4.1
Format settings, CABAC           : Yes
Format settings, ReFrames        : 5 frames
Muxing mode                      : Container profile=Unknown@4.1
Codec ID                         : V_MPEG4/ISO/AVC
Duration                         : 59mn 1s
Bit rate                         : 2 332 Kbps
Width                            : 1 280 pixels
Height                           : 720 pixels
Display aspect ratio             : 16:9
Frame rate                       : 25.000 fps
Resolution                       : 8 bits
Colorimetry                      : 4:2:0
Scan type                        : Progressive
Bits/(Pixel*Frame)               : 0.101
Stream size                      : 984 MiB (91%)
Writing library                  : x264 core 128 r2216 198a7ea

Language                         : English

Audio                            : English
ID                               : 2
Format                           : AC-3
Format/Info                      : Audio Coding 3
Codec ID                         : A_AC3
Duration                         : 59mn 1s
Bit rate mode                    : Constant
Bit rate                         : 192 Kbps
Channel(s)                       : 2 channels
Channel positions                : L R
Sampling rate                    : 48.0 KHz
Stream size                      : 81.1 MiB (7%)

